<mxfile host="app.diagrams.net" modified="2022-10-19T01:32:45.969Z" agent="5.0 (Windows NT 10.0; Win64; x64) AppleWebKit/537.36 (KHTML, like Gecko) Chrome/106.0.0.0 Safari/537.36" etag="9mG_ZHQTUkzjAhjvc5XD" version="20.4.1" type="github">
  <diagram id="RMGxSsM2sI6_btN5gmsU" name="Page-1">
    <mxGraphModel dx="1335" dy="708" grid="1" gridSize="10" guides="1" tooltips="1" connect="1" arrows="1" fold="1" page="1" pageScale="1" pageWidth="850" pageHeight="1100" math="0" shadow="0">
      <root>
        <mxCell id="0" />
        <mxCell id="1" parent="0" />
        <mxCell id="NC8oHqgBxWlMJGINSCbR-7" value="" style="edgeStyle=orthogonalEdgeStyle;rounded=0;orthogonalLoop=1;jettySize=auto;html=1;" edge="1" parent="1" source="NC8oHqgBxWlMJGINSCbR-2" target="NC8oHqgBxWlMJGINSCbR-6">
          <mxGeometry relative="1" as="geometry" />
        </mxCell>
        <mxCell id="NC8oHqgBxWlMJGINSCbR-2" value="Start" style="strokeWidth=2;html=1;shape=mxgraph.flowchart.terminator;whiteSpace=wrap;" vertex="1" parent="1">
          <mxGeometry x="390" y="120" width="100" height="60" as="geometry" />
        </mxCell>
        <mxCell id="NC8oHqgBxWlMJGINSCbR-9" value="" style="edgeStyle=orthogonalEdgeStyle;rounded=0;orthogonalLoop=1;jettySize=auto;html=1;" edge="1" parent="1" source="NC8oHqgBxWlMJGINSCbR-6" target="NC8oHqgBxWlMJGINSCbR-8">
          <mxGeometry relative="1" as="geometry" />
        </mxCell>
        <mxCell id="NC8oHqgBxWlMJGINSCbR-6" value="&lt;div&gt;int qty[15];&lt;/div&gt;&lt;div&gt;&lt;span style=&quot;&quot;&gt;	&lt;/span&gt;int hasil1=0;&lt;/div&gt;&lt;div&gt;&lt;span style=&quot;&quot;&gt;	&lt;/span&gt;int hasil2=0;&lt;/div&gt;&lt;div&gt;&lt;span style=&quot;&quot;&gt;	&lt;/span&gt;int hasil3=0;&lt;/div&gt;&lt;div&gt;&lt;span style=&quot;background-color: initial;&quot;&gt;int hasil4=0;&lt;/span&gt;&lt;/div&gt;&lt;div&gt;&lt;span style=&quot;&quot;&gt;&lt;/span&gt;&amp;nbsp; &amp;nbsp;int hasil5=0;&amp;nbsp; &amp;nbsp;&lt;/div&gt;&lt;div&gt;&lt;span style=&quot;&quot;&gt;	&lt;/span&gt;int casing, cpu,gpu, mb,ram,&amp;nbsp;&lt;/div&gt;&lt;div&gt;&lt;span style=&quot;&quot;&gt;	&lt;/span&gt;hargacsing,hargacpu,hargagpu,hargamb,hargaram,&amp;nbsp;&lt;/div&gt;&lt;div&gt;&lt;span style=&quot;&quot;&gt;	&lt;/span&gt;bayar;&lt;/div&gt;&lt;div&gt;&lt;br&gt;&lt;/div&gt;&lt;div&gt;string ncasing,ncpu,ngpu,nmboard,nram;&lt;br&gt;&lt;/div&gt;" style="shape=internalStorage;whiteSpace=wrap;html=1;dx=15;dy=15;rounded=1;arcSize=8;strokeWidth=2;" vertex="1" parent="1">
          <mxGeometry x="270" y="210" width="340" height="200" as="geometry" />
        </mxCell>
        <mxCell id="NC8oHqgBxWlMJGINSCbR-11" value="" style="edgeStyle=orthogonalEdgeStyle;rounded=0;orthogonalLoop=1;jettySize=auto;html=1;" edge="1" parent="1" source="NC8oHqgBxWlMJGINSCbR-8" target="NC8oHqgBxWlMJGINSCbR-10">
          <mxGeometry relative="1" as="geometry" />
        </mxCell>
        <mxCell id="NC8oHqgBxWlMJGINSCbR-8" value="void print(){" style="whiteSpace=wrap;html=1;rounded=1;arcSize=8;strokeWidth=2;" vertex="1" parent="1">
          <mxGeometry x="380" y="460" width="120" height="60" as="geometry" />
        </mxCell>
        <mxCell id="NC8oHqgBxWlMJGINSCbR-15" value="" style="edgeStyle=orthogonalEdgeStyle;rounded=0;orthogonalLoop=1;jettySize=auto;html=1;" edge="1" parent="1" source="NC8oHqgBxWlMJGINSCbR-10" target="NC8oHqgBxWlMJGINSCbR-14">
          <mxGeometry relative="1" as="geometry" />
        </mxCell>
        <mxCell id="NC8oHqgBxWlMJGINSCbR-10" value="&lt;div style=&quot;&quot;&gt;&lt;span style=&quot;white-space: pre;&quot;&gt;	&lt;/span&gt;&lt;span style=&quot;white-space: pre;&quot;&gt;	&lt;/span&gt;&lt;span style=&quot;white-space: pre;&quot;&gt;	&lt;/span&gt;&lt;span style=&quot;white-space: pre;&quot;&gt;	&lt;/span&gt;cout&amp;lt;&amp;lt;&quot;--------------------------------------&quot;&amp;lt;&amp;lt;endl;&lt;/div&gt;&lt;div style=&quot;&quot;&gt;&lt;span style=&quot;white-space: pre;&quot;&gt;	&lt;/span&gt;&lt;span style=&quot;white-space: pre;&quot;&gt;	&lt;/span&gt;&lt;span style=&quot;white-space: pre;&quot;&gt;	&lt;/span&gt;&lt;span style=&quot;white-space: pre;&quot;&gt;	&lt;/span&gt;cout&amp;lt;&amp;lt;&quot;Jenis casing anda adalah: &quot;&amp;lt;&amp;lt;ncasing&amp;lt;&amp;lt;endl;&lt;/div&gt;&lt;div style=&quot;&quot;&gt;&lt;span style=&quot;&quot;&gt;	&lt;/span&gt;&lt;span style=&quot;white-space: pre;&quot;&gt;	&lt;/span&gt;&lt;span style=&quot;white-space: pre;&quot;&gt;	&lt;/span&gt;&lt;span style=&quot;white-space: pre;&quot;&gt;	&lt;/span&gt;&lt;span style=&quot;white-space: pre;&quot;&gt;	&lt;/span&gt;cout&amp;lt;&amp;lt;&quot;QTY : &quot;&amp;lt;&amp;lt;hasil1&amp;lt;&amp;lt;endl;&lt;/div&gt;&lt;div style=&quot;&quot;&gt;&lt;span style=&quot;&quot;&gt;	&lt;/span&gt;&lt;span style=&quot;white-space: pre;&quot;&gt;	&lt;/span&gt;&lt;span style=&quot;white-space: pre;&quot;&gt;	&lt;/span&gt;&lt;span style=&quot;white-space: pre;&quot;&gt;	&lt;/span&gt;&lt;span style=&quot;white-space: pre;&quot;&gt;	&lt;/span&gt;cout&amp;lt;&amp;lt;&quot;Total : &quot;&amp;lt;&amp;lt;hargacsing&amp;lt;&amp;lt;endl&amp;lt;&amp;lt;endl;&lt;/div&gt;&lt;div&gt;&lt;span style=&quot;&quot;&gt;	&lt;/span&gt;&lt;/div&gt;&lt;div style=&quot;&quot;&gt;&lt;span style=&quot;&quot;&gt;	&lt;/span&gt;&lt;span style=&quot;white-space: pre;&quot;&gt;	&lt;/span&gt;&lt;span style=&quot;white-space: pre;&quot;&gt;	&lt;/span&gt;&lt;span style=&quot;white-space: pre;&quot;&gt;	&lt;/span&gt;&lt;span style=&quot;white-space: pre;&quot;&gt;	&lt;/span&gt;cout&amp;lt;&amp;lt;&quot;Jenis CPU anda adalah: &quot;&amp;lt;&amp;lt;ncpu&amp;lt;&amp;lt;endl;&lt;/div&gt;&lt;div style=&quot;&quot;&gt;&lt;span style=&quot;&quot;&gt;	&lt;/span&gt;&lt;span style=&quot;white-space: pre;&quot;&gt;	&lt;/span&gt;&lt;span style=&quot;white-space: pre;&quot;&gt;	&lt;/span&gt;&lt;span style=&quot;white-space: pre;&quot;&gt;	&lt;/span&gt;&lt;span style=&quot;white-space: pre;&quot;&gt;	&lt;/span&gt;cout&amp;lt;&amp;lt;&quot;QTY : &quot;&amp;lt;&amp;lt;hasil2&amp;lt;&amp;lt;endl;&lt;/div&gt;&lt;div style=&quot;&quot;&gt;&lt;span style=&quot;&quot;&gt;	&lt;/span&gt;&lt;span style=&quot;white-space: pre;&quot;&gt;	&lt;/span&gt;&lt;span style=&quot;white-space: pre;&quot;&gt;	&lt;/span&gt;&lt;span style=&quot;white-space: pre;&quot;&gt;	&lt;/span&gt;&lt;span style=&quot;white-space: pre;&quot;&gt;	&lt;/span&gt;cout&amp;lt;&amp;lt;&quot;Total : &quot;&amp;lt;&amp;lt;hargacpu&amp;lt;&amp;lt;endl&amp;lt;&amp;lt;endl;&lt;/div&gt;&lt;div&gt;&lt;span style=&quot;&quot;&gt;	&lt;/span&gt;&lt;/div&gt;&lt;div style=&quot;&quot;&gt;&lt;span style=&quot;&quot;&gt;	&lt;/span&gt;&lt;span style=&quot;white-space: pre;&quot;&gt;	&lt;/span&gt;&lt;span style=&quot;white-space: pre;&quot;&gt;	&lt;/span&gt;&lt;span style=&quot;white-space: pre;&quot;&gt;	&lt;/span&gt;&lt;span style=&quot;white-space: pre;&quot;&gt;	&lt;/span&gt;cout&amp;lt;&amp;lt;&quot;Jenis GPU anda adalah: &quot;&amp;lt;&amp;lt;ngpu&amp;lt;&amp;lt;endl;&lt;/div&gt;&lt;div style=&quot;&quot;&gt;&lt;span style=&quot;&quot;&gt;	&lt;/span&gt;&lt;span style=&quot;white-space: pre;&quot;&gt;	&lt;/span&gt;&lt;span style=&quot;white-space: pre;&quot;&gt;	&lt;/span&gt;&lt;span style=&quot;white-space: pre;&quot;&gt;	&lt;/span&gt;&lt;span style=&quot;white-space: pre;&quot;&gt;	&lt;/span&gt;cout&amp;lt;&amp;lt;&quot;QTY : &quot;&amp;lt;&amp;lt;hasil3&amp;lt;&amp;lt;endl;&lt;/div&gt;&lt;div style=&quot;&quot;&gt;&lt;span style=&quot;&quot;&gt;	&lt;/span&gt;&lt;span style=&quot;white-space: pre;&quot;&gt;	&lt;/span&gt;&lt;span style=&quot;white-space: pre;&quot;&gt;	&lt;/span&gt;&lt;span style=&quot;white-space: pre;&quot;&gt;	&lt;/span&gt;&lt;span style=&quot;white-space: pre;&quot;&gt;	&lt;/span&gt;cout&amp;lt;&amp;lt;&quot;Total : &quot;&amp;lt;&amp;lt;hargagpu&amp;lt;&amp;lt;endl&amp;lt;&amp;lt;endl;&lt;/div&gt;&lt;div&gt;&lt;span style=&quot;&quot;&gt;	&lt;/span&gt;&lt;/div&gt;&lt;div style=&quot;&quot;&gt;&lt;span style=&quot;&quot;&gt;	&lt;/span&gt;&lt;span style=&quot;white-space: pre;&quot;&gt;	&lt;/span&gt;&lt;span style=&quot;white-space: pre;&quot;&gt;	&lt;/span&gt;&lt;span style=&quot;white-space: pre;&quot;&gt;	&lt;/span&gt;&lt;span style=&quot;white-space: pre;&quot;&gt;	&lt;/span&gt;cout&amp;lt;&amp;lt;&quot;Jenis MOTHERBOARD anda adalah: &quot;&amp;lt;&amp;lt;nmboard&amp;lt;&amp;lt;endl;&lt;/div&gt;&lt;div style=&quot;text-align: justify;&quot;&gt;&lt;span style=&quot;&quot;&gt;	&lt;/span&gt;&lt;span style=&quot;white-space: pre;&quot;&gt;	&lt;/span&gt;&lt;span style=&quot;white-space: pre;&quot;&gt;	&lt;/span&gt;&lt;span style=&quot;white-space: pre;&quot;&gt;	&lt;/span&gt;&lt;span style=&quot;white-space: pre;&quot;&gt;	&lt;/span&gt;cout&amp;lt;&amp;lt;&quot;QTY : &quot;&amp;lt;&amp;lt;hasil4&amp;lt;&amp;lt;endl;&lt;/div&gt;&lt;div style=&quot;text-align: justify;&quot;&gt;&lt;span style=&quot;&quot;&gt;	&lt;/span&gt;&lt;span style=&quot;white-space: pre;&quot;&gt;	&lt;/span&gt;&lt;span style=&quot;white-space: pre;&quot;&gt;	&lt;/span&gt;&lt;span style=&quot;white-space: pre;&quot;&gt;	&lt;/span&gt;&lt;span style=&quot;white-space: pre;&quot;&gt;	&lt;/span&gt;cout&amp;lt;&amp;lt;&quot;Total : &quot;&amp;lt;&amp;lt;hargamb&amp;lt;&amp;lt;endl&amp;lt;&amp;lt;endl;&lt;/div&gt;&lt;div&gt;&lt;span style=&quot;&quot;&gt;	&lt;/span&gt;&lt;/div&gt;&lt;div style=&quot;text-align: justify;&quot;&gt;&lt;span style=&quot;&quot;&gt;	&lt;/span&gt;&lt;span style=&quot;white-space: pre;&quot;&gt;	&lt;/span&gt;&lt;span style=&quot;white-space: pre;&quot;&gt;	&lt;/span&gt;&lt;span style=&quot;white-space: pre;&quot;&gt;	&lt;/span&gt;&lt;span style=&quot;white-space: pre;&quot;&gt;	&lt;/span&gt;cout&amp;lt;&amp;lt;&quot;Jenis RAM anda adalah: &quot;&amp;lt;&amp;lt;nram&amp;lt;&amp;lt;endl;&lt;/div&gt;&lt;div style=&quot;text-align: justify;&quot;&gt;&lt;span style=&quot;&quot;&gt;	&lt;/span&gt;&lt;span style=&quot;white-space: pre;&quot;&gt;	&lt;/span&gt;&lt;span style=&quot;white-space: pre;&quot;&gt;	&lt;/span&gt;&lt;span style=&quot;white-space: pre;&quot;&gt;	&lt;/span&gt;&lt;span style=&quot;white-space: pre;&quot;&gt;	&lt;/span&gt;cout&amp;lt;&amp;lt;&quot;QTY : &quot;&amp;lt;&amp;lt;hasil5&amp;lt;&amp;lt;endl;&lt;/div&gt;&lt;blockquote style=&quot;margin: 0 0 0 40px; border: none; padding: 0px;&quot;&gt;&lt;div style=&quot;text-align: justify;&quot;&gt;&lt;span style=&quot;white-space: pre;&quot;&gt;	&lt;/span&gt;&lt;span style=&quot;white-space: pre;&quot;&gt;	&amp;nbsp;&lt;/span&gt;&amp;nbsp; &amp;nbsp;cout&amp;lt;&amp;lt;&quot;Total : &quot;&amp;lt;&amp;lt;hargaram&amp;lt;&amp;lt;endl&amp;lt;&amp;lt;endl;&lt;/div&gt;&lt;/blockquote&gt;&lt;div style=&quot;text-align: justify;&quot;&gt;&lt;span style=&quot;&quot;&gt;	&lt;/span&gt;&lt;span style=&quot;white-space: pre;&quot;&gt;	&lt;/span&gt;&lt;span style=&quot;white-space: pre;&quot;&gt;	&lt;/span&gt;&lt;span style=&quot;white-space: pre;&quot;&gt;	&lt;/span&gt;&lt;span style=&quot;white-space: pre;&quot;&gt;	&lt;/span&gt;cout&amp;lt;&amp;lt;&quot;--------------------------------------&quot;&amp;lt;&amp;lt;endl;&lt;/div&gt;&lt;div style=&quot;text-align: justify;&quot;&gt;&lt;span style=&quot;&quot;&gt;	&lt;/span&gt;&lt;span style=&quot;white-space: pre;&quot;&gt;	&lt;/span&gt;&lt;span style=&quot;white-space: pre;&quot;&gt;	&lt;/span&gt;&lt;span style=&quot;white-space: pre;&quot;&gt;	&lt;/span&gt;&lt;span style=&quot;white-space: pre;&quot;&gt;	&lt;/span&gt;cout&amp;lt;&amp;lt;&quot;Total Barang Anda Adalah: &quot;&amp;lt;&amp;lt;hasil1+hasil2+hasil3+hasil4+hasil5&amp;lt;&amp;lt;endl;&lt;/div&gt;&lt;div style=&quot;text-align: justify;&quot;&gt;&lt;span style=&quot;&quot;&gt;	&lt;/span&gt;&lt;span style=&quot;white-space: pre;&quot;&gt;	&lt;/span&gt;&lt;span style=&quot;white-space: pre;&quot;&gt;	&lt;/span&gt;&lt;span style=&quot;white-space: pre;&quot;&gt;	&lt;/span&gt;&lt;span style=&quot;white-space: pre;&quot;&gt;	&lt;/span&gt;cout&amp;lt;&amp;lt;&quot;Total harga yang harus anda bayar adalah: Rp.&quot;&amp;lt;&amp;lt;bayar&amp;lt;&amp;lt;endl;&lt;/div&gt;&lt;div style=&quot;text-align: justify;&quot;&gt;&lt;span style=&quot;&quot;&gt;	&lt;/span&gt;&lt;span style=&quot;white-space: pre;&quot;&gt;	&lt;/span&gt;&lt;span style=&quot;white-space: pre;&quot;&gt;	&lt;/span&gt;&lt;span style=&quot;white-space: pre;&quot;&gt;	&lt;/span&gt;&lt;span style=&quot;white-space: pre;&quot;&gt;	&lt;/span&gt;cout&amp;lt;&amp;lt;&quot;--------------------------------------&quot;&amp;lt;&amp;lt;endl;&lt;/div&gt;&lt;div style=&quot;text-align: justify;&quot;&gt;&lt;span style=&quot;background-color: initial;&quot;&gt;&amp;nbsp;&lt;span style=&quot;white-space: pre;&quot;&gt;	&lt;/span&gt;&lt;span style=&quot;white-space: pre;&quot;&gt;	&lt;/span&gt;&lt;span style=&quot;white-space: pre;&quot;&gt;	&lt;/span&gt;&lt;span style=&quot;white-space: pre;&quot;&gt;	&lt;/span&gt;getch();&lt;/span&gt;&lt;/div&gt;&lt;div style=&quot;text-align: justify;&quot;&gt;&lt;span style=&quot;white-space: pre;&quot;&gt;	&lt;/span&gt;&lt;span style=&quot;white-space: pre;&quot;&gt;	&lt;/span&gt;&lt;span style=&quot;white-space: pre;&quot;&gt;	&lt;/span&gt;&lt;span style=&quot;white-space: pre;&quot;&gt;	&lt;/span&gt;}&lt;/div&gt;" style="shape=parallelogram;perimeter=parallelogramPerimeter;whiteSpace=wrap;html=1;fixedSize=1;rounded=1;arcSize=8;strokeWidth=2;align=left;" vertex="1" parent="1">
          <mxGeometry x="160" y="570" width="560" height="350" as="geometry" />
        </mxCell>
        <mxCell id="NC8oHqgBxWlMJGINSCbR-17" value="" style="edgeStyle=orthogonalEdgeStyle;rounded=0;orthogonalLoop=1;jettySize=auto;html=1;" edge="1" parent="1" source="NC8oHqgBxWlMJGINSCbR-14" target="NC8oHqgBxWlMJGINSCbR-16">
          <mxGeometry relative="1" as="geometry" />
        </mxCell>
        <mxCell id="NC8oHqgBxWlMJGINSCbR-14" value="int main(){" style="whiteSpace=wrap;html=1;align=center;rounded=1;arcSize=8;strokeWidth=2;" vertex="1" parent="1">
          <mxGeometry x="380" y="980" width="120" height="60" as="geometry" />
        </mxCell>
        <mxCell id="NC8oHqgBxWlMJGINSCbR-20" value="" style="edgeStyle=orthogonalEdgeStyle;rounded=0;orthogonalLoop=1;jettySize=auto;html=1;" edge="1" parent="1" source="NC8oHqgBxWlMJGINSCbR-16" target="NC8oHqgBxWlMJGINSCbR-19">
          <mxGeometry relative="1" as="geometry" />
        </mxCell>
        <mxCell id="NC8oHqgBxWlMJGINSCbR-16" value="&lt;div&gt;cout&amp;lt;&amp;lt;&quot;=========================================&quot;&amp;lt;&amp;lt;endl;&lt;/div&gt;&lt;div&gt;&lt;span style=&quot;&quot;&gt;	&lt;/span&gt;cout&amp;lt;&amp;lt;&quot; SELAMAT DATANG DI PROGRAM Custom PC &quot;&amp;lt;&amp;lt;endl;&lt;/div&gt;&lt;div&gt;&lt;span style=&quot;&quot;&gt;	&lt;/span&gt;cout&amp;lt;&amp;lt;&quot;=========================================&quot;&amp;lt;&amp;lt;endl;&lt;/div&gt;&lt;div&gt;&lt;span style=&quot;&quot;&gt;	&lt;/span&gt;cout&amp;lt;&amp;lt;endl;&lt;/div&gt;&lt;div&gt;&lt;br&gt;&lt;/div&gt;&lt;div&gt;&lt;span style=&quot;&quot;&gt;	&lt;/span&gt;cout&amp;lt;&amp;lt;&quot;******************************************&quot;&amp;lt;&amp;lt;endl;&lt;/div&gt;&lt;div&gt;&amp;nbsp; cout&amp;lt;&amp;lt;&quot;|No|&amp;nbsp; &amp;nbsp;|Jenis Casing PC|&amp;nbsp; &amp;nbsp; |&amp;nbsp; &amp;nbsp; Harga&amp;nbsp; &amp;nbsp;|&quot;&amp;lt;&amp;lt;endl;&lt;/div&gt;&lt;div&gt;&lt;span style=&quot;background-color: initial;&quot;&gt;cout&amp;lt;&amp;lt;&quot;|--|---|---------------|----|------------|&quot;&amp;lt;&amp;lt;endl;&lt;/span&gt;&lt;/div&gt;&lt;div&gt;&lt;span style=&quot;&quot;&gt;	&lt;/span&gt;cout&amp;lt;&amp;lt;&quot;|1.|&amp;nbsp; &amp;nbsp;|Full Tower&amp;nbsp; &amp;nbsp; &amp;nbsp;|&amp;nbsp; &amp;nbsp; |Rp 1.000.000|&quot;&amp;lt;&amp;lt;endl;&lt;/div&gt;&lt;div&gt;&lt;span style=&quot;&quot;&gt;	&lt;/span&gt;cout&amp;lt;&amp;lt;&quot;|2.|&amp;nbsp; &amp;nbsp;|Mid Tower&amp;nbsp; &amp;nbsp; &amp;nbsp; |&amp;nbsp; &amp;nbsp; |Rp 750.000&amp;nbsp; |&quot;&amp;lt;&amp;lt;endl;&lt;/div&gt;&lt;div&gt;&lt;span style=&quot;&quot;&gt;	&lt;/span&gt;cout&amp;lt;&amp;lt;&quot;|3.|&amp;nbsp; &amp;nbsp;|Mini Tower&amp;nbsp; &amp;nbsp; &amp;nbsp;|&amp;nbsp; &amp;nbsp; |Rp 500.000&amp;nbsp; |&quot;&amp;lt;&amp;lt;endl;&lt;/div&gt;&lt;div&gt;&lt;span style=&quot;&quot;&gt;	&lt;/span&gt;cout&amp;lt;&amp;lt;&quot;******************************************&quot;&amp;lt;&amp;lt;endl;&lt;/div&gt;&lt;div&gt;&lt;span style=&quot;&quot;&gt;	&lt;/span&gt;cout&amp;lt;&amp;lt;endl;&lt;/div&gt;&lt;div&gt;&lt;span style=&quot;&quot;&gt;	&lt;/span&gt;&lt;/div&gt;&lt;div&gt;&lt;span style=&quot;&quot;&gt;	&lt;/span&gt;cout &amp;lt;&amp;lt;&quot;Silahkan Pilih Jenis Casing PC (1-3) : &quot;;&lt;/div&gt;" style="shape=parallelogram;perimeter=parallelogramPerimeter;whiteSpace=wrap;html=1;fixedSize=1;rounded=1;arcSize=8;strokeWidth=2;" vertex="1" parent="1">
          <mxGeometry x="210" y="1090" width="460" height="270" as="geometry" />
        </mxCell>
        <mxCell id="NC8oHqgBxWlMJGINSCbR-22" value="" style="edgeStyle=orthogonalEdgeStyle;rounded=0;orthogonalLoop=1;jettySize=auto;html=1;" edge="1" parent="1" source="NC8oHqgBxWlMJGINSCbR-19" target="NC8oHqgBxWlMJGINSCbR-21">
          <mxGeometry relative="1" as="geometry" />
        </mxCell>
        <mxCell id="NC8oHqgBxWlMJGINSCbR-19" value="cin&amp;gt;&amp;gt;casing;" style="shape=parallelogram;perimeter=parallelogramPerimeter;whiteSpace=wrap;html=1;fixedSize=1;rounded=1;arcSize=8;strokeWidth=2;" vertex="1" parent="1">
          <mxGeometry x="380" y="1410" width="120" height="60" as="geometry" />
        </mxCell>
        <mxCell id="NC8oHqgBxWlMJGINSCbR-21" value="&lt;span style=&quot;&quot;&gt;	&lt;/span&gt;cout&amp;lt;&amp;lt;&quot;Jumlah Pembelian: &quot;;" style="shape=parallelogram;perimeter=parallelogramPerimeter;whiteSpace=wrap;html=1;fixedSize=1;rounded=1;arcSize=8;strokeWidth=2;" vertex="1" parent="1">
          <mxGeometry x="330" y="1520" width="220" height="60" as="geometry" />
        </mxCell>
      </root>
    </mxGraphModel>
  </diagram>
</mxfile>
